<svg xmlns="http://www.w3.org/2000/svg" viewBox="0 0 24 24" fill="none" stroke="#FFFFFF" stroke-width="2" stroke-linecap="round" stroke-linejoin="round">
  <rect width="24" height="24" rx="6" fill="#1D4ED8" stroke="none"/>
  
  <path d="M7.5 18.5a1.5 1.5 0 0 1-1.5-1.5v-10A1.5 1.5 0 0 1 7.5 5.5h5.5a1.8 1.8 0 0 1 1.2.5l2.8 2.8a1.8 1.8 0 0 1 .5 1.2v6.5a1.5 1.5 0 0 1-1.5 1.5z" stroke="#FFFFFF"></path>
  <path d="M13 5.5v3a1 1 0 0 0 1 1h3" stroke="#FFFFFF"></path>
  
  <path d="M9 12h5" stroke="#FFFFFF"></path>
  <path d="M9 15h5" stroke="#FFFFFF"></path>
</svg>
